<svg width="245" height="256" viewBox="0 0 245 256" fill="none" xmlns="http://www.w3.org/2000/svg">
<path d="M118.517 58.9509C119.918 59.9515 121.427 60.4978 123 60.4978C124.572 60.4977 126.079 59.952 127.479 58.9529C135.99 92.4906 155.738 116.405 178.997 118.006L122.999 210.004L67 118.006C90.2596 116.405 110.006 92.4896 118.517 58.9509ZM123.002 194.061L123.196 193.741H122.808L123.002 194.061ZM131 180.887L168.061 119.847C152.017 118.524 138.207 103.494 131 81.8415V180.887ZM114.999 81.8894C107.786 103.521 93.9805 118.532 77.9443 119.848L114.999 180.88V81.8894Z" fill="black"/>
<path d="M172.5 99C173.456 99 174.329 99.6463 175 100.715V111.431C174.329 112.5 173.456 113.146 172.5 113.146C171.544 113.146 170.671 112.5 170 111.431V100.715C170.671 99.6463 171.544 99.0001 172.5 99Z" fill="black"/>
<path d="M73.5 99C74.4558 99 75.3288 99.6473 76 100.716V111.432C75.3288 112.501 74.456 113.147 73.5 113.147C72.544 113.147 71.6712 112.501 71 111.432V100.716C71.6711 99.6473 72.5442 99.0001 73.5 99Z" fill="black"/>
<path d="M123 29C124.911 29 126.658 30.2931 128 32.4297V53.8643C126.658 56.0013 124.912 57.2949 123 57.2949C121.088 57.2948 119.342 56.0008 118 53.8633V32.4307C119.342 30.2936 121.088 29.0002 123 29Z" fill="black"/>
<path d="M157.317 164.938C178.616 171.54 193 184.095 193 198.5C193 219.763 161.66 237 123 237C84.3401 237 53 219.763 53 198.5C53 184.096 67.3827 171.542 88.6797 164.939L122.999 221.32L157.317 164.938Z" fill="black"/>
</svg>
